<svg xmlns="http://www.w3.org/2000/svg" viewBox="0 0 26.78 22.4"><defs><style>.cls-1{fill:#aab8c1;}</style></defs><title>ic_messagesvg</title><g id="Layer_2" data-name="Layer 2"><g id="Layer_1-2" data-name="Layer 1"><path class="cls-1" d="M12.58,6.39,7,1.32A.76.76,0,0,1,7.5,0H18.75a.76.76,0,0,1,.5,1.32L13.6,6.39A.76.76,0,0,1,12.58,6.39Z"/><path class="cls-1" d="M26.78,3.95v8.16a4.65,4.65,0,0,1-4.65,4.65H8.33A.92.92,0,0,0,7.7,17L2.81,21.91A1.65,1.65,0,0,1,0,20.75V3.06A3,3,0,0,1,1,.81a.75.75,0,0,1,1,0l10.88,9.84a.76.76,0,0,0,1,0L24.63,1.19a.76.76,0,0,1,1,0A3.89,3.89,0,0,1,26.78,3.95Z"/></g></g></svg>