<svg xmlns="http://www.w3.org/2000/svg" viewBox="0 0 37.53 21.78"><defs><style>.cls-1{fill:#aab8c1;}</style></defs><title>ic_retweetsvg</title><g id="Layer_2" data-name="Layer 2"><g id="Layer_1-2" data-name="Layer 1"><path class="cls-1" d="M22.34,19.06v1a1.73,1.73,0,0,1-1.73,1.74H7.71A1.74,1.74,0,0,1,6,20v-8c0-.31,0-.58,0-.85H.9A.89.89,0,0,1,.19,9.81L7.52.34a.9.9,0,0,1,1.42,0l6.94,9.47a.89.89,0,0,1-.72,1.41H10.33c0,.42,0,.54,0,.85v3.49a1.74,1.74,0,0,0,1.74,1.74h8.52A1.73,1.73,0,0,1,22.34,19.06Z"/><path class="cls-1" d="M15.19,2.72v-1A1.73,1.73,0,0,1,16.92,0h12.9a1.74,1.74,0,0,1,1.74,1.74v8c0,.31,0,.58,0,.85h5.07A.89.89,0,0,1,37.34,12L30,21.44a.9.9,0,0,1-1.42,0L21.65,12a.89.89,0,0,1,.72-1.41H27.2c0-.42,0-.54,0-.85V6.2a1.74,1.74,0,0,0-1.74-1.74H16.92A1.73,1.73,0,0,1,15.19,2.72Z"/></g></g></svg>